<svg width="15" height="15" viewBox="0 0 15 15" fill="none" xmlns="http://www.w3.org/2000/svg">
<path d="M3.41121 9.72482C3.2195 9.78853 3.02476 9.84993 2.83607 9.90938C1.94593 10.1899 1.17638 10.4325 0.920775 10.792C0.422877 11.4924 0.018449 12.638 6.05892e-06 14.8293C-0.000359939 14.8746 0.015869 14.9179 0.0450389 14.95C0.0742588 14.9822 0.114009 15 0.155498 15H6.54683L7.10768 11.7181H7.89236L8.45319 15H14.8445C14.886 15 14.9257 14.9822 14.9549 14.95C14.9841 14.9179 15.0004 14.8744 15 14.8292C14.9815 12.6379 14.5771 11.4924 14.0792 10.792C13.8236 10.4325 13.0549 10.1902 12.1647 9.90964L12.1635 9.90926C11.968 9.84765 11.7659 9.78397 11.5674 9.71775L10.4151 9.23723C10.3113 9.17509 10.2231 9.11078 10.1559 9.04409C10.1151 9.00373 10.0579 8.98984 10.0053 9.00758C9.95272 9.02533 9.91272 9.07207 9.90002 9.1305C9.89602 9.14895 9.44732 10.4036 8.27241 10.8133L7.90641 11.5456H7.07445L6.70501 10.8064C5.54539 10.3897 5.10395 9.14881 5.09997 9.1305C5.08728 9.07207 5.04723 9.02533 4.99466 9.00758C4.94212 8.98984 4.88479 9.00376 4.84406 9.04409C4.77224 9.1153 4.6766 9.18375 4.56351 9.24982L3.41121 9.72482Z" fill="#E5001D"/>
<path d="M7.49997 10C8.5444 10 11 8.52772 11 4.99995C11 4.50787 10.9898 4.03252 10.9551 3.58339C10.8983 2.69949 10.7437 1.91614 10.3589 1.3158C9.86526 0.498824 9.00169 0 7.49997 0C5.99851 0 5.13495 0.49862 4.64133 1.31533C4.25624 1.91584 4.10161 2.69939 4.0448 3.5836C4.01021 4.03267 4 4.50797 4 5C3.99995 8.52772 6.45554 10 7.49997 10ZM4.52063 4.23505C4.52699 4.03822 5.27722 2.4139 5.54239 2.45113C5.84721 2.49397 5.80823 3.50834 7.49997 3.50515C9.19163 3.50834 9.4946 4.25645 10.0422 4.41162C10.2989 4.48435 10.4389 4.33834 10.4793 4.23505C10.4874 4.4882 10.4906 4.74448 10.4906 5C10.4906 6.72435 9.8405 7.79279 9.29515 8.38543C8.60804 9.13221 7.84514 9.40325 7.50001 9.40325C7.15488 9.40325 6.39198 9.13221 5.7049 8.38543C5.1595 7.79279 4.5095 6.72435 4.5095 5C4.50946 4.74448 4.51245 4.4882 4.52063 4.23505Z" fill="#E5001D"/>
</svg>
