<svg width="10" height="10" viewBox="0 0 10 10" fill="none" xmlns="http://www.w3.org/2000/svg">
<path d="M2.27415 6.63609C2.14634 6.67672 2.01651 6.71587 1.89071 6.75378C1.29729 6.93268 0.784257 7.08734 0.613851 7.31666C0.281917 7.76329 0.0123027 8.49382 4.03416e-06 9.89113C-0.000239783 9.92 0.0105773 9.9476 0.0300263 9.96811C0.0495083 9.98862 0.0760093 10 0.103664 10H4.36456L4.73846 7.90722H5.26158L5.63547 10H9.89632C9.92399 10 9.95049 9.98862 9.96996 9.96811C9.98942 9.9476 10.0002 9.91992 10 9.89106C9.9877 8.49374 9.71809 7.76329 9.38615 7.31666C9.21573 7.08734 8.70328 6.93285 8.10984 6.75395C7.97948 6.71466 7.84395 6.67381 7.71164 6.63158L6.94342 6.32517C6.87423 6.28554 6.81544 6.24453 6.7706 6.202C6.74344 6.17626 6.70531 6.16741 6.67021 6.17872C6.63516 6.19004 6.60846 6.21985 6.59999 6.25711C6.59732 6.26887 6.29821 7.06891 5.51495 7.33017L5.27095 7.79717H4.71631L4.47001 7.32578C3.69694 7.06006 3.40264 6.26878 3.39998 6.25711C3.39152 6.21985 3.36483 6.19004 3.32978 6.17872C3.29475 6.16741 3.25653 6.17629 3.22938 6.202C3.1815 6.24741 3.11774 6.29106 3.04234 6.33319L2.27415 6.63609Z" fill="white"/>
<path d="M4.99998 6.62593C5.76208 6.62593 7.55388 5.65041 7.55388 3.31293C7.55388 2.98689 7.54642 2.67192 7.52115 2.37433C7.47967 1.78866 7.3669 1.26962 7.0861 0.871837C6.72591 0.330517 6.09576 0 4.99998 0C3.90439 0 3.27428 0.330383 2.91409 0.871535C2.6331 1.26942 2.52026 1.7886 2.47882 2.37447C2.45358 2.67203 2.44612 2.98695 2.44612 3.31297C2.44609 5.65041 4.23788 6.62593 4.99998 6.62593ZM2.82602 2.80612C2.83066 2.6757 3.37809 1.59944 3.57157 1.6241C3.794 1.65249 3.76556 2.32461 4.99998 2.32249C6.23438 2.32461 6.45543 2.82029 6.855 2.92311C7.04227 2.9713 7.14451 2.87456 7.17395 2.80612C7.17992 2.97385 7.18213 3.14366 7.18213 3.31297C7.18213 4.45551 6.70781 5.16345 6.30988 5.55613C5.80852 6.05095 5.25185 6.23054 5.00002 6.23054C4.74818 6.23054 4.19151 6.05095 3.69015 5.55613C3.29219 5.16345 2.8179 4.45551 2.8179 3.31297C2.81787 3.14366 2.82005 2.97385 2.82602 2.80612Z" fill="white"/>
</svg>
