<svg width="12" height="15" viewBox="0 0 12 15" fill="none" xmlns="http://www.w3.org/2000/svg">
<path d="M2.72897 9.72482C2.5756 9.78853 2.4198 9.84993 2.26885 9.90938C1.55674 10.1899 0.941107 10.4325 0.73662 10.792C0.338302 11.4924 0.0147592 12.638 4.84714e-06 14.8293C-0.000287952 14.8746 0.0126952 14.9179 0.0360311 14.95C0.059407 14.9822 0.0912068 15 0.124399 15H5.23746L5.68614 11.7181H6.31389L6.76255 15H11.8756C11.9088 15 11.9406 14.9822 11.9639 14.95C11.9873 14.9179 12.0003 14.8744 12 14.8292C11.9852 12.6379 11.6617 11.4924 11.2634 10.792C11.0589 10.4325 10.4439 10.1902 9.73177 9.90964L9.7308 9.90926C9.57441 9.84765 9.41273 9.78397 9.25393 9.71775L8.33209 9.23723C8.24905 9.17509 8.17849 9.11078 8.12473 9.04409C8.09209 9.00373 8.04633 8.98984 8.00425 9.00758C7.96217 9.02533 7.93017 9.07207 7.92001 9.1305C7.91681 9.14895 7.55785 10.4036 6.61793 10.8133L6.32513 11.5456H5.65956L5.36401 10.8064C4.43632 10.3897 4.08316 9.14881 4.07997 9.1305C4.06982 9.07207 4.03778 9.02533 3.99573 9.00758C3.95369 8.98984 3.90783 9.00376 3.87525 9.04409C3.81779 9.1153 3.74128 9.18375 3.65081 9.24982L2.72897 9.72482Z" fill="#E5001D"/>
<path d="M5.99998 10C6.8952 10 9 8.52772 9 4.99995C9 4.50787 8.99123 4.03252 8.96155 3.58339C8.91284 2.69949 8.78033 1.91614 8.45048 1.3158C8.02736 0.498824 7.28716 0 5.99998 0C4.713 0 3.97282 0.49862 3.54971 1.31533C3.21963 1.91584 3.08709 2.69939 3.0384 3.5836C3.00876 4.03267 3 4.50797 3 5C2.99996 8.52772 5.10474 10 5.99998 10ZM3.44625 4.23505C3.4517 4.03822 4.09476 2.4139 4.32205 2.45113C4.58332 2.49397 4.54991 3.50834 5.99998 3.50515C7.44997 3.50834 7.70965 4.25645 8.17906 4.41162C8.39903 4.48435 8.51909 4.33834 8.5537 4.23505C8.56067 4.4882 8.56333 4.74448 8.56333 5C8.56333 6.72435 8.00614 7.79279 7.5387 8.38543C6.94974 9.13221 6.29583 9.40325 6.00001 9.40325C5.70418 9.40325 5.05027 9.13221 4.46134 8.38543C3.99386 7.79279 3.43671 6.72435 3.43671 5C3.43668 4.74448 3.43924 4.4882 3.44625 4.23505Z" fill="#E5001D"/>
</svg>
