<?xml version="1.0" standalone="no"?>
<!DOCTYPE svg PUBLIC "-//W3C//DTD SVG 20010904//EN"
 "http://www.w3.org/TR/2001/REC-SVG-20010904/DTD/svg10.dtd">
<svg version="1.0" xmlns="http://www.w3.org/2000/svg"
 width="40" height="50" viewBox="0 0 2301.000000 2357.000000"
 preserveAspectRatio="xMidYMid meet">

<g transform="translate(0.000000,2357.000000) scale(0.100000,-0.100000)"
fill="#000000" stroke="none">
<path d="M3606 23200 c-307 -29 -592 -158 -796 -360 -146 -144 -239 -298 -305
-502 -56 -174 -69 -266 -70 -493 0 -218 13 -320 65 -533 119 -484 406 -1016
764 -1416 39 -44 415 -404 836 -799 421 -396 771 -727 778 -735 9 -12 12 -169
12 -709 l0 -693 -27 -6 c-184 -39 -399 -129 -551 -231 -159 -106 -337 -297
-428 -460 -127 -226 -186 -449 -186 -703 0 -233 50 -444 152 -644 80 -158 150
-244 414 -513 137 -139 247 -255 245 -257 -2 -1 -32 -10 -66 -20 -34 -9 -95
-30 -135 -47 -469 -193 -799 -587 -895 -1066 -24 -123 -24 -377 0 -493 60
-284 188 -517 420 -770 60 -64 67 -75 51 -81 -11 -4 -57 -19 -103 -34 -304
-94 -575 -288 -749 -538 -100 -144 -166 -290 -214 -477 -40 -154 -50 -400 -23
-561 45 -274 159 -509 349 -720 46 -52 335 -344 642 -650 601 -598 615 -610
819 -709 55 -27 141 -62 190 -79 l90 -30 5 -653 c5 -631 6 -657 28 -762 103
-489 379 -900 787 -1172 305 -203 653 -304 1045 -304 l119 0 77 -112 c373
-545 939 -987 1687 -1317 783 -346 1770 -574 2902 -671 467 -40 569 -43 1240
-45 l670 -2 842 -1029 c463 -566 863 -1052 888 -1081 90 -103 245 -148 376
-110 78 23 4935 2975 5002 3041 27 25 60 72 75 104 24 50 27 70 27 154 l0 97
-722 1448 c-397 796 -740 1493 -762 1548 -114 288 -186 569 -228 880 -21 166
-24 618 -5 780 20 162 58 362 97 510 18 72 138 436 265 810 265 777 268 788
309 950 71 285 96 504 95 835 0 282 -12 408 -60 650 -93 470 -297 942 -574
1330 -110 155 -165 216 -360 401 -250 238 -645 655 -945 999 -616 705 -1198
1493 -1638 2218 l-87 142 0 1904 c0 1265 -4 1939 -11 2007 -82 805 -672 1448
-1479 1611 l-115 23 -3965 0 c-3270 0 -3978 -2 -4040 -13 -318 -57 -581 -170
-825 -355 -99 -76 -242 -217 -323 -320 l-61 -77 -333 316 c-183 174 -364 339
-403 366 -241 171 -570 257 -879 228z m319 -750 c33 -13 83 -37 110 -55 80
-51 887 -823 881 -843 -8 -29 -35 -231 -46 -347 -19 -195 -23 -618 -10 -955
13 -359 28 -883 25 -888 -1 -1 -242 224 -536 500 -320 302 -566 543 -616 602
-270 322 -449 707 -518 1116 -21 124 -31 436 -16 514 33 174 165 311 356 368
89 26 287 20 370 -12z m10566 -152 c390 -107 679 -399 790 -798 l24 -85 3
-1300 3 -1300 -38 37 c-110 106 -292 178 -450 178 l-72 0 -3 603 -3 602 -27
55 c-35 71 -107 143 -178 178 l-55 27 -4000 3 c-4412 2 -4050 8 -4151 -60 -56
-38 -116 -114 -141 -178 -17 -42 -18 -153 -21 -1827 -1 -981 -4 -1783 -7
-1783 -2 0 -41 27 -87 60 -97 70 -269 157 -385 196 l-83 27 0 2161 c0 1300 4
2197 10 2251 20 189 76 343 181 500 164 246 425 418 712 470 59 11 804 13
3977 12 l3905 -2 96 -27z m-471 -3165 l0 -636 -68 -106 c-290 -450 -466 -874
-528 -1276 -22 -145 -22 -404 0 -545 39 -249 103 -446 231 -705 90 -182 171
-317 291 -483 l74 -103 0 -2426 0 -2426 -79 -121 c-362 -554 -596 -1221 -672
-1919 l-13 -117 -3222 0 -3223 0 -4 583 c-3 501 -6 592 -21 652 -66 276 -181
490 -395 731 l-89 100 92 28 c434 131 804 497 951 939 50 152 65 237 71 402 9
237 -28 410 -132 617 -94 188 -207 331 -476 604 -109 110 -198 203 -198 206 0
3 17 9 38 13 63 11 233 82 327 136 130 75 219 145 332 262 235 244 370 541
403 888 20 205 -13 427 -93 624 -86 209 -167 316 -474 626 l-243 245 0 1922 0
1922 3560 0 3560 0 0 -637z m1130 -1533 c613 -1130 1417 -2239 2384 -3290 161
-174 610 -630 760 -771 226 -212 458 -626 572 -1022 113 -393 135 -834 63
-1247 -42 -243 -92 -402 -449 -1440 -182 -529 -250 -837 -280 -1275 -44 -627
72 -1295 330 -1900 23 -55 323 -664 666 -1354 343 -690 623 -1255 622 -1256
-108 -68 -4290 -2606 -4292 -2604 -2 2 -369 452 -816 999 -447 547 -829 1012
-849 1033 -20 21 -63 53 -96 70 -70 37 -35 36 -780 23 -1722 -32 -3267 234
-4269 736 -337 169 -636 375 -856 590 l-85 83 3450 5 c2946 4 3455 7 3485 19
92 37 165 108 209 200 23 49 26 69 26 156 0 135 -24 186 -137 287 -314 284
-590 756 -727 1243 -87 314 -115 536 -115 930 -1 324 5 411 49 684 120 738
433 1382 947 1940 279 303 685 613 1028 786 115 58 173 124 206 231 10 32 25
322 54 991 43 997 43 998 0 1082 -10 22 -426 577 -924 1235 -497 657 -921
1222 -940 1255 -190 313 -288 725 -237 1001 66 361 278 802 574 1198 l69 93
142 -288 c79 -158 176 -349 216 -423z m-9867 -1315 c58 -8 164 -43 237 -80
131 -66 196 -125 766 -697 471 -473 578 -585 612 -643 140 -238 130 -511 -27
-738 -43 -64 -151 -160 -230 -207 -39 -23 -112 -56 -163 -73 -89 -30 -101 -31
-253 -31 -155 -1 -163 0 -255 32 -183 63 -187 67 -729 606 -719 716 -750 753
-797 936 -22 85 -22 235 -1 320 75 292 358 546 646 580 65 7 100 7 194 -5z
m9884 -2521 l386 -510 -2 -85 c-1 -46 -15 -376 -30 -734 -26 -593 -30 -650
-46 -660 -186 -109 -477 -317 -652 -465 l-73 -62 0 1534 c1 1367 2 1531 16
1513 8 -11 188 -250 401 -531z m-10090 -324 c101 -26 181 -60 276 -117 70 -42
148 -116 625 -596 300 -301 565 -573 588 -604 162 -216 178 -512 42 -740 -75
-126 -213 -244 -355 -303 -106 -44 -190 -60 -324 -60 -138 0 -236 22 -351 78
-73 35 -106 66 -692 639 -658 645 -675 664 -728 813 -20 56 -23 84 -23 210 0
132 3 151 27 218 79 217 249 380 470 452 134 43 300 47 445 10z m-600 -2475
c39 -10 105 -34 147 -54 71 -34 104 -65 618 -567 714 -699 715 -700 766 -805
23 -46 49 -111 57 -144 19 -76 19 -222 0 -304 -57 -241 -275 -453 -540 -525
-33 -9 -112 -19 -175 -23 -186 -9 -354 35 -496 130 -80 53 -1179 1150 -1233
1230 -73 108 -121 260 -121 382 0 193 105 409 258 530 82 66 224 133 329 156
109 23 283 21 390 -6z m1638 -3175 c38 -107 115 -192 203 -227 45 -17 184 -18
3484 -21 l3437 -2 5 -53 c3 -28 10 -99 16 -157 55 -524 235 -1083 486 -1506
25 -44 50 -87 55 -97 9 -16 -152 -17 -3623 -15 l-3633 3 -96 26 c-185 52 -343
136 -478 255 -155 137 -280 353 -334 574 -19 80 -20 121 -24 677 l-4 592 28 7
c135 30 272 78 381 133 l57 29 12 -87 c6 -47 19 -106 28 -131z"/>
<path d="M10158 21770 c-65 -11 -163 -66 -205 -114 -168 -193 -93 -497 144
-586 54 -20 67 -20 1066 -18 l1012 3 53 28 c76 40 134 97 167 164 41 82 47
211 14 298 -30 82 -120 172 -204 206 l-60 24 -970 1 c-533 1 -991 -2 -1017 -6z"/>
<path d="M9075 21697 c-62 -21 -97 -42 -137 -84 -141 -145 -95 -380 90 -470
75 -36 192 -39 263 -6 142 64 216 215 175 355 -20 70 -88 149 -160 185 -61 31
-169 40 -231 20z"/>
<path d="M10363 7055 c-122 -33 -231 -122 -286 -234 -30 -62 -32 -72 -32 -176
0 -99 3 -116 28 -169 54 -117 142 -194 268 -236 93 -32 228 -26 317 15 121 55
206 147 242 262 50 162 5 322 -123 440 -107 98 -269 137 -414 98z"/>
</g>
</svg>
