<svg width="12" height="15" viewBox="0 0 12 15" fill="none" xmlns="http://www.w3.org/2000/svg">
<path fill-rule="evenodd" clip-rule="evenodd" d="m335.05 406.19c0 5.6562-4.7578 10.238-10.625 10.238-5.8633 0-10.621-4.582-10.621-10.238 0-5.6523 4.7578-10.238 10.621-10.238 5.8672 0 10.625 4.5859 10.625 10.238"/>
  <path d="m362.62 60.566h-44.32c-4.8281 0-8.7344-3.9219-8.7344-8.7578 0-4.8398 3.9023-8.7578 8.7344-8.7578h44.32c4.8281 0 8.7344 3.9219 8.7344 8.7578 0 4.8398-3.9023 8.7578-8.7344 8.7578z"/>
  <path d="m292.91 58.992c-4.1406 0-7.5-3.2188-7.5-7.1836s3.3594-7.1836 7.5-7.1836c4.1406 0 7.5078 3.2188 7.5078 7.1836-0.007813 3.9648-3.375 7.1836-7.5078 7.1836z"/>
  <path d="m287.82 228.91c-9.957 0-15.355-15.32-15.355-23.336 0-8.0938 5.3906-23.328 15.355-23.328 9.957 0 15.363 15.305 15.363 23.328 0 8.0391-5.3984 23.336-15.363 23.336z"/>
  <path d="m360.25 228.91c-9.957 0-15.363-15.32-15.363-23.336 0-8.0938 5.3984-23.328 15.363-23.328s15.355 15.305 15.355 23.328c0 8.0391-5.3789 23.336-15.355 23.336z"/>
  <path d="m323.62 288.49c-20.695 0-39.715-9.2148-50.891-24.633-2.8359-3.9102-1.9609-9.3906 1.9336-12.234 3.9219-2.8516 9.3633-1.9688 12.207 1.9414 7.8906 10.902 21.629 17.402 36.75 17.402 15.977 0 30.547-7.4023 38.027-19.32 2.5742-4.0781 7.9609-5.3125 12.059-2.7461 4.0781 2.582 5.3008 7.9805 2.7383 12.074-10.664 16.98-30.902 27.516-52.824 27.516z"/>
  <path d="m567.83 467.87-32.023-64.172c-10.035-20.109-11.586-42.848-4.3594-64.031l10.02-29.41c9.3438-27.406 3.8398-57.164-14.734-79.617-0.28125-0.33984-0.57812-0.65625-0.91016-0.94531-0.45312-0.40234-38.789-35.016-67.969-84.297l-0.003907-89.414c0-24.141-19.59-43.785-43.672-43.785h-180.32c-14.699 0-27.668 7.375-35.586 18.566l-14.648-13.914c-13.746-13.082-38.5-9.9766-47.984 6.7383-12.266 21.648 3.4062 53.383 19.418 68.461l35.133 33.066v33.539c-6.1875 1.207-12.129 3.8594-17.078 8.1992-14.523 12.75-15.469 35.324-1.8008 49.105l10.062 10.148c-14.902 3.6562-26.484 16.406-27.027 32.035-0.38672 10.98 4.7773 19.934 12.383 27.371-5.6602 1.3398-11.086 3.8516-15.652 7.8477-14.543 12.738-15.48 35.332-1.8008 49.113l24.832 25.043c4.5312 4.5664 10.141 7.5234 16.09 9.1719v25.602c0 24.141 19.59 43.785 43.672 43.785h3.9727c33.312 54.242 134.39 52.527 157.6 51.32l41.477 50.707c2.6953 3.2812 7.6641 4.1289 11.289 1.9336l116.35-70.754c3.8789-2.375 5.3047-7.3359 3.2773-11.414zm-333.97-438.16h180.32c14.445 0 26.207 11.785 26.207 26.266v58.074c-3.6055-3.668-8.3477-5.418-13.441-5.1719l0.003907-26.492c0-4.8398-3.9023-8.7578-8.7344-8.7578h-188.38c-4.8281 0-8.7344 3.9219-8.7344 8.7578v83.973c-4-3.3164-8.5664-5.6719-13.441-7.0273l0.003906-103.35c-0.007812-14.492 11.75-26.27 26.195-26.27zm157.21 337.41h-154.66v-23.25c0-10.535-5.082-19.145-12.371-26.285 16.258-3.8516 28.141-19.555 26.922-36.375-0.98047-13.535-10.668-21.789-19.539-30.738 25.191-6.1875 36.031-37.852 17.141-56.902l-10.012-10.09v-92.344h170.91v30.555c-8.4805 12.531-16.195 28.289-14.664 43.863 1.25 12.715 7.1211 23.484 14.664 33.453 0 0-0.20312 116.42-0.15625 116.59-10.824 15.477-16.477 32.766-18.234 51.527zm35.863-145.02 19.312 25.531-1.5039 35.184c-4.2344 2.4336-10.754 6.6758-17.805 12.914zm-259.92-142.82c-11.961-11.262-18.332-26.75-17.473-42.508 0.60547-10.84 15.059-13.867 22.066-7.2031l19.383 18.41c-3.1484 16.992-0.80469 35.902-0.80469 53.113zm44.328 101.59 24.84 25.043c6.6133 6.6836 6.125 17.402-0.91016 23.582-7.6562 6.7109-19.645 6.3008-26.738-0.84766l-24.84-25.043c-6.6133-6.6836-5.8555-17.098 0.91016-23.582 9.3594-8.9688 19.738-5.5664 26.738 0.84766zm-7.0859 67.035 24.832 25.043c6.625 6.6758 6.1406 17.402-0.90234 23.582-6.457 5.6602-15.996 6.2109-23.09 1.9414l-28.488-27.816c-6.6328-6.6836-6.0547-17.309 0.91016-23.582 7.1992-6.4844 18.398-6.0703 26.738 0.83203zm-42.605 82.215c-6.625-6.6836-6.1328-17.402 0.91016-23.582 6.293-5.5117 16.004-6.125 23.125-1.8906l28.445 27.789c3.2461 3.2812 4.9531 7.5078 4.8047 11.891-0.15625 4.4375-2.1875 8.582-5.7227 11.68-7.4883 6.5977-19.758 6.2031-26.73-0.84766zm72.203 98.43c-14.445 0-26.207-11.785-26.207-26.266v-24.832c3.9297-0.76953 7.7617-2.1367 11.297-4.1641-0.25391 5.5391 2.3438 11.348 8.7344 11.348h163.03c1.207 19.484 7.4727 34.098 13.738 43.918zm211.76 102.56-39.508-48.293c-1.6641-2.0391-4.1562-3.2031-6.7539-3.2031-0.22656 0-0.46484 0.007812-0.69141 0.027344-1.0938 0.078124-100.91 7.4727-139.27-33.574h163.79c8.043 0 11.664-10.551 5.4531-15.602-1.0938-0.89062-26.688-22.285-19.434-68.453 7.3398-46.75 46.035-65.074 47.66-65.828 3-1.3555 4.9883-4.3047 5.1289-7.6055l1.8555-43.363c0.085938-2.0391-0.53516-4.043-1.7656-5.6602l-42.805-56.586c-3.875-5.7734-6.3164-12.469-7.0859-19.371-1.0078-9.0391 5.5664-24.781 15.801-37.434 29.145 63.586 79.652 110.61 85.707 116.11 14.402 17.746 18.078 41.004 11.156 62.59-3.1328 9.7656-6.6133 19.418-9.9219 29.121-8.75 25.664-6.8867 53.199 5.2656 77.523l28.422 56.961z"/>
</svg>