<?xml version="1.0" standalone="no"?>
<!DOCTYPE svg PUBLIC "-//W3C//DTD SVG 20010904//EN"
 "http://www.w3.org/TR/2001/REC-SVG-20010904/DTD/svg10.dtd">
<svg version="1.0" xmlns="http://www.w3.org/2000/svg"
 width="65" height="auto" viewBox="0 0 2232.000000 1798.000000"
 preserveAspectRatio="xMidYMid meet">

<g transform="translate(0.000000,1798.000000) scale(0.100000,-0.100000)"
fill="#000000" stroke="none">
<path d="M5962 17219 c-304 -51 -556 -272 -659 -579 l-28 -85 -3 -1345 c-1
-740 -1 -1471 0 -1624 l3 -280 163 152 c90 84 191 171 224 193 67 46 186 103
236 114 l32 7 0 744 0 744 2950 0 2950 0 0 -2833 0 -2832 104 -104 105 -104 6
39 c25 148 88 302 179 438 71 104 101 135 186 190 l70 46 -2 3232 -3 3233 -34
98 c-101 293 -356 507 -663 557 -80 13 -5739 12 -5816 -1z m3510 -1004 c65
-44 86 -146 43 -211 -8 -13 -34 -36 -57 -52 l-42 -27 -535 -3 -536 -3 -45 23
c-58 30 -84 75 -84 145 0 59 19 93 74 131 l33 22 556 0 556 0 37 -25z" fill="#E5001D"/>
<path d="M5975 13296 c-37 -17 -2979 -2654 -3089 -2769 -274 -286 -471 -621
-576 -979 -16 -57 -172 -791 -345 -1631 l-315 -1528 0 -812 0 -812 -490 -490
-490 -490 1683 -1647 1682 -1647 560 559 560 560 125 0 c913 1 1799 330 2485
924 91 79 765 747 765 758 0 5 -577 8 -1283 8 -1133 0 -1295 2 -1378 16 -464
79 -852 405 -1013 852 -14 39 -35 116 -47 170 -27 125 -26 97 -40 2926 l-10
2260 769 770 c783 784 836 842 936 1015 265 459 284 1036 52 1516 -99 202
-287 443 -372 475 -37 14 -134 11 -169 -4z" fill="#E5001D"/>
<path d="M15397 12204 c-174 -39 -345 -161 -412 -294 -72 -144 -78 -263 -26
-489 26 -113 32 -156 27 -199 -15 -129 -104 -236 -225 -272 -92 -27 -125 -25
-260 12 -257 71 -464 21 -628 -150 -140 -146 -186 -363 -128 -597 46 -187 28
-304 -63 -398 -45 -47 -76 -64 -159 -88 -73 -20 -106 -17 -263 25 -325 88
-621 -63 -726 -371 -23 -65 -27 -96 -28 -188 0 -104 1 -115 37 -204 57 -143
51 -241 -22 -337 -25 -34 -57 -59 -101 -82 -61 -32 -70 -34 -141 -30 -51 3
-91 12 -122 27 -36 17 -364 343 -1429 1418 -761 768 -1412 1418 -1448 1445
-87 67 -206 123 -315 149 -75 18 -111 20 -220 17 -149 -6 -243 -31 -378 -100
-107 -56 -148 -87 -211 -164 -135 -163 -206 -381 -193 -587 10 -155 54 -278
142 -402 24 -33 1144 -1160 2489 -2504 1787 -1787 2452 -2458 2472 -2494 17
-33 28 -70 31 -111 4 -53 1 -68 -24 -115 -22 -42 -39 -60 -81 -84 -71 -40
-160 -48 -223 -19 -31 14 -199 168 -584 536 -296 284 -542 513 -546 508 -16
-17 -352 -953 -366 -1016 -18 -88 -13 -274 11 -361 60 -217 220 -416 415 -515
72 -36 4247 -1685 4352 -1718 212 -68 431 -97 686 -90 157 4 174 7 263 37 107
36 187 79 275 145 l60 45 490 -489 490 -489 1683 1671 1683 1672 -561 561
-561 561 -9 64 c-5 36 -26 189 -46 340 -52 398 -99 607 -200 886 -115 320
-268 600 -478 881 -136 182 -248 303 -577 628 -151 149 -920 911 -1709 1695
-1504 1494 -1499 1489 -1663 1565 -160 74 -343 100 -480 69z" fill="#E5001D"/>
<path d="M5592 9637 l-322 -322 2 -2430 3 -2430 32 -95 c76 -223 222 -390 428
-490 194 -94 -74 -84 2535 -88 1268 -1 2494 -1 2724 0 l419 3 -69 46 c-200
133 -379 364 -470 606 -88 234 -103 526 -40 774 13 52 85 265 159 474 l135
380 -2599 3 -2599 2 0 1945 c0 1070 -3 1945 -8 1945 -4 0 -152 -145 -330 -323z
m3458 -4087 c238 -80 393 -289 393 -530 0 -218 -116 -412 -303 -510 -293 -152
-629 -44 -776 249 -39 79 -54 145 -54 241 0 167 52 292 170 410 125 126 244
173 415 166 57 -3 114 -12 155 -26z" fill="#E5001D"/>
</g>
</svg>
