<svg width="15" height="15" viewBox="0 0 15 15" fill="none" xmlns="http://www.w3.org/2000/svg">
<path d="M11.7724 4.0181H3.22782C3.08088 4.0181 2.96191 4.118 2.96191 4.2413V4.6878C2.96191 4.8112 3.08088 4.9111 3.22782 4.9111H11.7724C11.9194 4.9111 12.0384 4.8112 12.0384 4.6878V4.2413C12.0384 4.118 11.9194 4.0181 11.7724 4.0181Z" fill="#E5001D"/>
<path d="M5.90442 0.446602C5.75769 0.446602 5.63851 0.5466 5.63851 0.6698V2.0094C5.63851 2.1328 5.51954 2.2326 5.3726 2.2326C5.22566 2.2326 5.10669 2.1328 5.10669 2.0094V1.1204C4.20765 1.6897 3.60361 2.57 3.52466 3.5722H11.4751C11.3962 2.57 10.7922 1.6897 9.89306 1.1204V2.0094C9.89306 2.1328 9.77406 2.2326 9.62716 2.2326C9.48026 2.2326 9.36126 2.1328 9.36126 2.0094V0.6698C9.36126 0.5466 9.24206 0.446602 9.09536 0.446602H8.82943V1.5629C8.82943 1.6862 8.71047 1.7861 8.56352 1.7861C8.41658 1.7861 8.29761 1.6862 8.29761 1.5629V0.223301C8.29761 0.100101 8.17844 0 8.0317 0H6.96806C6.82133 0 6.70215 0.100101 6.70215 0.223301V1.5629C6.70215 1.6862 6.58318 1.7861 6.43624 1.7861C6.2893 1.7861 6.17033 1.6862 6.17033 1.5629V0.446602H5.90442Z" fill="#E5001D"/>
<path d="M3.67351 4.9108C3.66646 5.1248 3.66382 5.3436 3.66382 5.5659C3.66377 8.8467 6.34773 10.216 7.48929 10.216C8.63084 10.216 11.3148 8.8467 11.3148 5.5659C11.3148 5.3435 11.3122 5.1248 11.3051 4.9108H10.7478C10.7552 5.1279 10.758 5.3472 10.758 5.5659C10.758 7.1696 10.0475 8.1632 9.45136 8.7144C8.7004 9.4089 7.86656 9.661 7.48933 9.661C7.11211 9.661 6.27826 9.4089 5.52727 8.7144C4.93115 8.1632 4.22071 7.1696 4.22071 5.5659C4.22067 5.3472 4.22343 5.1279 4.23084 4.9108H3.67351Z" fill="#E5001D"/>
<path d="M3.10516 12.7232C2.70741 12.7232 2.38496 13.0417 2.38496 13.4346V14.9998H0.155499C0.114019 14.9998 0.0742591 14.9836 0.0450391 14.9545C0.0158691 14.9254 -0.000359941 14.8862 6.05895e-06 14.8452C0.0184491 12.8608 0.422879 11.8234 0.920779 11.1891C1.17639 10.8634 1.94507 10.644 2.83522 10.39C3.02391 10.3361 3.21953 10.2803 3.41125 10.2226V12.7232H3.10516Z" fill="#E5001D"/>
<path d="M4.56348 12.7232H10.4152V9.781C10.3114 9.7247 10.2232 9.6665 10.1559 9.6061C10.1152 9.5695 10.058 9.557 10.0054 9.573C9.95276 9.5891 9.91266 9.6314 9.89996 9.6843C9.89516 9.7043 9.25496 11.324 7.49831 11.324C5.74166 11.324 5.10473 9.7043 5.09994 9.6843C5.08725 9.6314 5.0472 9.5891 4.99463 9.573C4.94209 9.557 4.88476 9.5696 4.84403 9.6061C4.77221 9.6706 4.67657 9.7326 4.56348 9.7924V12.7232Z" fill="#E5001D"/>
<path d="M12.1647 10.39C13.0549 10.644 13.8236 10.8634 14.0792 11.1891C14.5771 11.8234 14.9815 12.8607 15 14.8451C15.0004 14.886 14.9841 14.9254 14.9549 14.9545C14.9257 14.9836 14.886 14.9998 14.8445 14.9998H12.6117V13.4346C12.6117 13.0417 12.2893 12.7232 11.8915 12.7232H11.5674V10.2162C11.7659 10.2762 11.968 10.3338 12.1636 10.3896L12.1647 10.39Z" fill="#E5001D"/>
</svg>
