<svg width="10" height="10" viewBox="0 0 10 10" fill="none" xmlns="http://www.w3.org/2000/svg">
<path d="M7.84825 2.67868H2.15188C2.05392 2.67868 1.9746 2.74527 1.9746 2.82752V3.1252C1.9746 3.20745 2.05392 3.27404 2.15188 3.27404H7.84825C7.94621 3.27404 8.02552 3.20745 8.02552 3.1252V2.82752C8.02552 2.74527 7.94621 2.67868 7.84825 2.67868Z" fill="white"/>
<path d="M3.93627 0.29768C3.83845 0.29768 3.759 0.364387 3.759 0.446521V1.33956C3.759 1.42181 3.67969 1.4884 3.58172 1.4884C3.48376 1.4884 3.40445 1.42181 3.40445 1.33956V0.746876C2.80509 1.12642 2.4024 1.71329 2.34977 2.38144H7.65005C7.59742 1.71329 7.19472 1.12642 6.59536 0.746876V1.33956C6.59536 1.42181 6.51605 1.4884 6.41809 1.4884C6.32013 1.4884 6.24082 1.42181 6.24082 1.33956V0.446521C6.24082 0.364387 6.16137 0.29768 6.06355 0.29768H5.88627V1.04188C5.88627 1.12413 5.80696 1.19072 5.709 1.19072C5.61104 1.19072 5.53173 1.12413 5.53173 1.04188V0.14884C5.53173 0.0667068 5.45228 0 5.35445 0H4.64536C4.54754 0 4.46809 0.0667068 4.46809 0.14884V1.04188C4.46809 1.12413 4.38878 1.19072 4.29082 1.19072C4.19285 1.19072 4.11354 1.12413 4.11354 1.04188V0.29768H3.93627Z" fill="white"/>
<path d="M2.449 3.27385C2.4443 3.41653 2.44254 3.56233 2.44254 3.71059C2.44251 5.89778 4.23181 6.81059 4.99284 6.81059C5.75388 6.81059 7.54318 5.89778 7.54318 3.71056C7.54318 3.56231 7.54142 3.41652 7.53672 3.27385H7.16513C7.17008 3.41857 7.17195 3.56478 7.17195 3.71059C7.17195 4.77969 6.69829 5.44212 6.30091 5.80956C5.80025 6.27257 5.24436 6.44061 4.99288 6.44061C4.74139 6.44061 4.1855 6.27257 3.68484 5.80956C3.28743 5.44212 2.8138 4.77969 2.8138 3.71059C2.81377 3.56478 2.81561 3.41857 2.82055 3.27385H2.449Z" fill="white"/>
<path d="M2.0701 8.48206C1.80493 8.48206 1.58997 8.6944 1.58997 8.95635V9.99979H0.103664C0.0760097 9.99979 0.0495086 9.98902 0.0300265 9.9696C0.0105773 9.95018 -0.000239785 9.92405 4.03418e-06 9.89672C0.0123028 8.57382 0.281919 7.88219 0.613854 7.45935C0.78426 7.24224 1.29671 7.09599 1.89014 6.92661C2.01593 6.89072 2.14635 6.85349 2.27416 6.81502V8.48206H2.0701Z" fill="white"/>
<path d="M3.04231 8.48208H6.94341V6.52062C6.87422 6.4831 6.81543 6.44428 6.77058 6.40401C6.74343 6.37964 6.70529 6.37126 6.6702 6.38197C6.63515 6.39269 6.60844 6.42091 6.59998 6.45618C6.59678 6.4695 6.16997 7.5493 4.99886 7.5493C3.82776 7.5493 3.40314 6.46946 3.39995 6.45618C3.39149 6.42091 3.36479 6.39269 3.32974 6.38197C3.29472 6.37126 3.2565 6.37967 3.22935 6.40401C3.18146 6.44701 3.1177 6.48833 3.04231 6.52822V8.48208Z" fill="white"/>
<path d="M8.10983 6.92661C8.70327 7.09598 9.21573 7.24224 9.38614 7.45935C9.71809 7.88219 9.9877 8.57375 10 9.89666C10.0002 9.92398 9.98942 9.95018 9.96996 9.9696C9.95049 9.98902 9.92399 9.99979 9.89632 9.99979H8.40782V8.95635C8.40782 8.6944 8.19287 8.48206 7.92769 8.48206H7.71163V6.81076C7.84395 6.85074 7.97869 6.88919 8.10907 6.92639L8.10983 6.92661Z" fill="white"/>
</svg>
