<svg width="459" height="536" viewBox="0 0 459 536" fill="none" xmlns="http://www.w3.org/2000/svg">
<path d="M408 0H51C22.95 0 0 22.95 0 51V408C0 436.05 22.95 459 51 459H153L229.5 535.5L306 459H408C436.05 459 459 436.05 459 408V51C459 22.95 436.05 0 408 0ZM255 408H204V357H255V408ZM308.55 211.65L285.6 234.6C265.201 252.45 255 267.75 255 306H204V293.25C204 265.2 214.2 239.7 234.6 221.85L265.201 188.7C275.401 181.05 280.501 168.3 280.501 153C280.501 124.95 257.551 102 229.501 102C201.451 102 178.501 124.95 178.501 153H127.501C127.501 96.9 173.401 51 229.501 51C285.601 51 331.501 96.9 331.501 153C331.5 175.95 321.3 196.35 308.55 211.65Z" fill="#ED1940"/>
</svg>
