<svg width="15" height="15" viewBox="0 0 15 15" fill="none" xmlns="http://www.w3.org/2000/svg">
<path d="M13.3333 0H1.66667C0.75 0 0 0.642857 0 1.42857V11.4286C0 12.2143 0.75 12.8571 1.66667 12.8571H5L7.5 15L10 12.8571H13.3333C14.25 12.8571 15 12.2143 15 11.4286V1.42857C15 0.642857 14.25 0 13.3333 0ZM8.33333 11.4286H6.66667V10H8.33333V11.4286ZM10.0833 5.92857L9.33333 6.57143C8.6667 7.07143 8.33333 7.5 8.33333 8.57143H6.66667V8.21429C6.66667 7.42857 7 6.71429 7.66667 6.21429L8.6667 5.28571C9.00003 5.07143 9.1667 4.71429 9.1667 4.28571C9.1667 3.5 8.4167 2.85714 7.50003 2.85714C6.58337 2.85714 5.83337 3.5 5.83337 4.28571H4.1667C4.1667 2.71429 5.6667 1.42857 7.50003 1.42857C9.33337 1.42857 10.8334 2.71429 10.8334 4.28571C10.8333 4.92857 10.5 5.5 10.0833 5.92857Z" fill="#E5001D"/>
</svg>
