<svg width="12" height="15" viewBox="0 0 12 15" fill="none" xmlns="http://www.w3.org/2000/svg">
<path d="M10.6667 0H1.33333C0.6 0 0 0.642857 0 1.42857V11.4286C0 12.2143 0.6 12.8571 1.33333 12.8571H4L6 15L8 12.8571H10.6667C11.4 12.8571 12 12.2143 12 11.4286V1.42857C12 0.642857 11.4 0 10.6667 0ZM6.66667 11.4286H5.33333V10H6.66667V11.4286ZM8.06667 5.92857L7.46667 6.57143C6.93336 7.07143 6.66667 7.5 6.66667 8.57143H5.33333V8.21429C5.33333 7.42857 5.6 6.71429 6.13333 6.21429L6.93336 5.28571C7.20003 5.07143 7.33336 4.71429 7.33336 4.28571C7.33336 3.5 6.73336 2.85714 6.00003 2.85714C5.26669 2.85714 4.66669 3.5 4.66669 4.28571H3.33336C3.33336 2.71429 4.53336 1.42857 6.00003 1.42857C7.46669 1.42857 8.66669 2.71429 8.66669 4.28571C8.66667 4.92857 8.4 5.5 8.06667 5.92857Z" fill="#E5001D"/>
</svg>
