<svg width="10" height="10" viewBox="0 0 10 10" fill="none" xmlns="http://www.w3.org/2000/svg">
<path d="M4.38148 3.871L0.231584 8.0158C0.077223 8.16995 0 8.3546 0 8.56966C0 8.78881 0.0772017 8.97134 0.231584 9.11753L0.8775 9.77487C1.036 9.92502 1.22084 10 1.43204 10C1.64738 10 1.83019 9.92502 1.98052 9.77487L6.13641 5.62394C5.73841 5.46563 5.38604 5.23335 5.0792 4.92703C4.77252 4.62065 4.53998 4.26865 4.38148 3.871ZM2.09633 8.45403C2.01905 8.53108 1.92765 8.56968 1.82206 8.56968C1.71643 8.56968 1.62503 8.53108 1.54785 8.45403C1.47065 8.37693 1.43204 8.28566 1.43204 8.18016C1.43204 8.07476 1.47065 7.98335 1.54785 7.90614C1.62503 7.82918 1.71637 7.79057 1.82206 7.79057C1.92772 7.79057 2.01913 7.82918 2.09633 7.90614C2.17349 7.98333 2.2121 8.07474 2.2121 8.18016C2.2121 8.28564 2.17349 8.37693 2.09633 8.45403Z" fill="white"/>
<path d="M9.94834 2.82415C9.9138 2.78351 9.86604 2.76326 9.80518 2.76326C9.76866 2.76326 9.62549 2.83534 9.37555 2.97938C9.12574 3.12339 8.85042 3.28768 8.54985 3.47234C8.24913 3.65702 8.08867 3.7554 8.06841 3.76759L6.89222 3.11633V1.75296L8.67768 0.724279C8.74267 0.67966 8.77518 0.622848 8.77518 0.553863C8.77518 0.484921 8.74267 0.428129 8.67768 0.38349C8.49886 0.261721 8.28047 0.167368 8.02263 0.100429C7.76464 0.0334906 7.51778 0 7.2822 0C6.53065 0 5.88775 0.266859 5.35359 0.800406C4.81924 1.33391 4.55225 1.97607 4.55225 2.7267C4.55225 3.47735 4.81939 4.11949 5.35359 4.65304C5.88775 5.18654 6.53065 5.4534 7.2822 5.4534C7.85508 5.4534 8.38019 5.28386 8.85753 4.94514C9.33478 4.60633 9.66905 4.16507 9.85997 3.62135C9.95333 3.34953 10.0001 3.13443 10.0001 2.97623C10.0002 2.91551 9.98281 2.86478 9.94834 2.82415Z" fill="white"/>
</svg>
