<svg width="15" height="15" viewBox="0 0 15 15" fill="none" xmlns="http://www.w3.org/2000/svg">
<path d="M1.87501 14.8348C2.09411 15.0551 2.44934 15.0551 2.6684 14.8348L9 8.4705C8.9995 8.47031 8.999 8.47014 8.9986 8.46994C8.40749 8.22902 7.87737 7.87521 7.42286 7.41834C7.01188 7.0053 6.68528 6.5287 6.44964 6L0.164314 12.3178C-0.0547713 12.538 -0.0547713 12.895 0.164314 13.1153L1.87501 14.8348Z" fill="#E5001D"/>
<path d="M7.79273 7.16994C8.23235 7.62182 8.74729 7.94891 9.29597 8.15179C9.74299 8.31708 10.2124 8.4 10.6818 8.4C11.2587 8.4 11.8355 8.27522 12.3708 8.02567C12.619 7.90991 12.6784 7.5748 12.4856 7.37662L9.95249 4.77283C9.6447 4.45647 9.6447 3.94355 9.95249 3.62718L12.483 1.02607C12.677 0.82659 12.6174 0.489042 12.3674 0.372757C11.833 0.124257 11.2574 0 10.6818 0C9.63617 0 8.59054 0.410007 7.79273 1.23008C6.59785 2.45828 6.30078 4.27103 6.90136 5.78999C7.10014 6.29278 7.39715 6.7634 7.79273 7.16994ZM8.10192 5.72633C8.04411 5.72633 7.9863 5.70366 7.94217 5.6583C7.85401 5.56761 7.85401 5.42058 7.94217 5.32988L8.40081 4.85841C8.48907 4.76773 8.63214 4.76773 8.72031 4.85841C8.80857 4.94911 8.80857 5.09614 8.72031 5.18683L8.26167 5.65828C8.21754 5.70365 8.15973 5.72633 8.10192 5.72633ZM8.72078 6.36245C8.66297 6.36245 8.60516 6.33978 8.56103 6.29444C8.47286 6.20374 8.47286 6.05671 8.56103 5.96602L9.01966 5.49453C9.10792 5.40384 9.251 5.40384 9.33916 5.49453C9.42742 5.58523 9.42742 5.73225 9.33916 5.82295L8.88053 6.29442C8.8364 6.33978 8.77859 6.36245 8.72078 6.36245ZM9.17988 6.93056C9.09171 6.83986 9.09171 6.69283 9.17988 6.60213L9.63852 6.13068C9.72678 6.03999 9.86985 6.04001 9.95802 6.13068C10.0463 6.22136 10.0463 6.36839 9.95802 6.4591L9.49938 6.93058C9.45525 6.97591 9.39744 6.99859 9.33963 6.99859C9.28182 6.99856 9.22401 6.9759 9.17988 6.93056Z" fill="#E5001D"/>
<path d="M11.539 5.37093L13.3253 7.06745C13.5247 7.25687 13.855 7.24176 14.0301 7.03177C15.0785 5.77462 15.2769 4.08755 14.6255 2.66756C14.4927 2.37783 14.092 2.30894 13.8567 2.5324L11.539 4.73363C11.3537 4.90962 11.3537 5.19494 11.539 5.37093Z" fill="#E5001D"/>
</svg>
