<svg width="12" height="15" viewBox="0 0 12 15" fill="none" xmlns="http://www.w3.org/2000/svg">
<path fill-rule="evenodd" clip-rule="evenodd" d="M1.4118 0H10.5887C11.3532 0 12.0003 0.470082 12 1.02563V13.9746C12 14.5301 11.3527 15 10.5885 15H1.4118C0.647335 15 0 14.5301 0 13.9746V1.02563C0 0.470082 0.647335 0 1.4118 0ZM7.4705 0.726678H4.52925C4.41186 0.726678 4.3533 0.769413 4.35277 0.854882C4.35277 0.940352 4.41186 0.983086 4.52925 0.983086H7.4705C7.5879 0.983086 7.64695 0.940352 7.64695 0.854882C7.64695 0.769413 7.5879 0.726678 7.4705 0.726678ZM5.29425 13.9315C5.29425 14.2308 5.5886 14.4443 6.00015 14.4443C6.41165 14.4443 6.70605 14.2308 6.70605 13.974C6.70605 13.6751 6.41165 13.4612 6.00015 13.4612C5.58835 13.4612 5.29425 13.6323 5.29425 13.9315ZM1.00002 13.0768H11.0005V1.58118H1.00002V13.0768ZM4.37519 9.12005V8.65387H3.73348V9.12005H4.37519ZM4.37519 6.32292V5.85674H3.73348V6.32292H4.37519ZM8.2255 6.32292V5.85674H7.58375V6.32292H8.2255ZM5.0169 9.58259H3.09174V8.18766H5.0169V9.58259ZM5.0169 6.78913H3.09174V5.39056H5.0169V6.78913ZM8.8672 6.78913H6.94205V5.39056H8.8672V6.78913ZM5.6586 7.75781C5.6586 7.73776 5.6362 7.72148 5.6086 7.72148H2.5C2.47239 7.72148 2.45 7.73776 2.45 7.75781V10.0161C2.45 10.0362 2.47239 10.0524 2.5 10.0524H5.6086C5.6362 10.0524 5.6586 10.0362 5.6586 10.0161V7.75781ZM8.2255 10.0524V9.58623H7.58375V10.0524H8.2255ZM9.5089 10.0524V9.58623H8.8672V10.0524H9.5089ZM9.5089 9.12009V7.72148H8.8672V8.1877H8.22545V7.72148H6.3003V10.0524H6.942V8.65387H7.58375V9.12009H9.5089ZM5.6586 4.96067C5.6586 4.94062 5.6362 4.92435 5.6086 4.92435H2.5C2.47239 4.92435 2.45 4.94062 2.45 4.96067V7.21898C2.45 7.23903 2.47239 7.25531 2.5 7.25531H5.6086C5.6362 7.25531 5.6586 7.23903 5.6586 7.21898V4.96067ZM9.5089 4.96067C9.5089 4.94062 9.4865 4.92435 9.4589 4.92435H6.3503C6.3227 4.92435 6.3003 4.94062 6.3003 4.96067V7.21898C6.3003 7.23903 6.3227 7.25531 6.3503 7.25531H9.4589C9.4865 7.25531 9.5089 7.23903 9.5089 7.21898V4.96067Z" fill="#E5001D"/>
</svg>
