<svg width="240" height="413" viewBox="0 0 240 413" fill="none" xmlns="http://www.w3.org/2000/svg">
<path fill-rule="evenodd" clip-rule="evenodd" d="M28.2359 0H211.775C227.064 0 240.005 12.9415 240 28.2359V384.725C240 400.019 227.053 412.955 211.769 412.955H28.2359C12.9467 412.955 0 400.019 0 384.725V28.2359C0 12.9415 12.9467 0 28.2359 0ZM149.41 20.0057H90.585C88.2372 20.0057 87.066 21.1822 87.0555 23.5352C87.0555 25.8882 88.2372 27.0647 90.585 27.0647H149.41C151.758 27.0647 152.939 25.8882 152.939 23.5352C152.939 21.1822 151.758 20.0057 149.41 20.0057ZM105.885 383.538C105.885 391.779 111.772 397.656 120.003 397.656C128.233 397.656 134.121 391.779 134.121 384.709C134.121 376.479 128.233 370.591 120.003 370.591C111.767 370.591 105.885 375.302 105.885 383.538ZM20.0004 360.008H220.01V43.5304H20.0004V360.008ZM87.5038 251.078V238.244H74.6695V251.078H87.5038ZM87.5038 174.072V161.238H74.6695V174.072H87.5038ZM164.51 174.072V161.238H151.675V174.072H164.51ZM100.338 263.812H61.8348V225.409H100.338V263.812ZM100.338 186.907H61.8348V148.404H100.338V186.907ZM177.344 186.907H138.841V148.404H177.344V186.907ZM113.172 213.575C113.172 213.023 112.724 212.575 112.172 212.575H50C49.4477 212.575 49 213.023 49 213.575V275.747C49 276.299 49.4477 276.747 50 276.747H112.172C112.724 276.747 113.172 276.299 113.172 275.747V213.575ZM164.51 276.746V263.912H151.675V276.746H164.51ZM190.178 276.746V263.912H177.344V276.746H190.178ZM190.178 251.079V212.575H177.344V225.41H164.509V212.575H126.006V276.747H138.84V238.244H151.675V251.079H190.178ZM113.172 136.569C113.172 136.017 112.724 135.569 112.172 135.569H50C49.4477 135.569 49 136.017 49 136.569V198.741C49 199.293 49.4477 199.741 50 199.741H112.172C112.724 199.741 113.172 199.293 113.172 198.741V136.569ZM190.178 136.569C190.178 136.017 189.73 135.569 189.178 135.569H127.006C126.454 135.569 126.006 136.017 126.006 136.569V198.741C126.006 199.293 126.454 199.741 127.006 199.741H189.178C189.73 199.741 190.178 199.293 190.178 198.741V136.569Z" fill="#ED1940"/>
</svg>
