<?xml version="1.0" standalone="no"?>
<!DOCTYPE svg PUBLIC "-//W3C//DTD SVG 20010904//EN"
 "http://www.w3.org/TR/2001/REC-SVG-20010904/DTD/svg10.dtd">
<svg version="1.0" xmlns="http://www.w3.org/2000/svg"
 width="2131.000000pt" height="2219.000000pt" viewBox="0 0 2131.000000 2219.000000"
 preserveAspectRatio="xMidYMid meet">

<g transform="translate(0.000000,2219.000000) scale(0.100000,-0.100000)"
fill="#000000" stroke="none">
<path d="M2065 22134 c-247 -33 -460 -97 -674 -200 -251 -121 -444 -256 -631
-444 -357 -357 -578 -807 -645 -1313 -13 -106 -15 -990 -15 -8345 0 -7396 2
-8241 16 -8362 60 -524 269 -1024 600 -1440 96 -120 351 -371 469 -461 403
-307 817 -483 1330 -566 105 -17 490 -18 8170 -18 7680 0 8065 1 8170 18 513
83 927 259 1330 566 118 90 373 341 469 461 333 418 541 919 601 1445 14 127
15 745 13 6485 -3 6004 -4 6350 -21 6445 -84 476 -242 869 -490 1220 -212 299
-535 600 -839 782 -350 209 -692 329 -1115 390 -107 15 -301 17 -2135 20
l-2018 4 0 1412 c0 1567 4 1463 -68 1607 -72 144 -231 266 -390 299 -38 8
-1754 11 -6040 10 -4984 -1 -6004 -3 -6087 -15z m11405 -2239 l0 -1075 -5647
2 -5648 3 -80 23 c-192 56 -338 138 -474 267 -492 469 -441 1234 110 1645 134
100 300 169 473 195 64 10 1233 13 5674 14 l5592 1 0 -1075z m-11940 -2108
c127 -51 327 -106 490 -134 101 -17 448 -18 8375 -23 l8270 -6 100 -22 c356
-78 624 -227 871 -484 252 -262 402 -588 443 -960 15 -132 15 -12394 1 -12523
-36 -322 -148 -598 -345 -850 -247 -315 -600 -525 -1015 -602 -90 -17 -477
-18 -8035 -18 -7558 0 -7945 1 -8035 18 -344 64 -628 208 -869 441 -279 270
-447 616 -491 1011 -6 59 -10 2499 -10 7178 l0 7087 68 -34 c37 -18 119 -54
182 -79z"/>
<path d="M13920 16583 c-114 -19 -264 -104 -345 -196 -55 -63 -119 -186 -134
-259 -8 -38 -11 -638 -9 -2073 l3 -2020 24 -60 c74 -185 206 -309 391 -367
l75 -23 2310 0 c2175 0 2314 1 2374 18 210 58 378 227 426 428 13 56 15 315
15 2054 0 2193 4 2048 -62 2184 -44 90 -169 215 -259 259 -137 66 41 62 -2489
60 -1262 0 -2306 -3 -2320 -5z m3940 -2498 l0 -1315 -1625 0 -1625 0 0 1315 0
1315 1625 0 1625 0 0 -1315z"/>
<path d="M2420 15230 l0 -1150 260 0 260 0 2 709 3 710 540 -710 540 -709 258
0 257 0 0 1150 0 1150 -260 0 -260 0 -2 -723 -3 -724 -553 724 -553 723 -245
0 -244 0 0 -1150z"/>
<path d="M5100 15230 l0 -1150 845 0 845 0 0 230 0 230 -585 0 -585 0 0 235 0
235 510 0 510 0 0 225 0 225 -510 0 -510 0 0 230 0 230 570 0 570 0 0 230 0
230 -830 0 -830 0 0 -1150z"/>
<path d="M6954 16358 c3 -13 183 -529 399 -1148 l394 -1125 194 -3 194 -2 245
781 c135 429 247 782 250 784 3 2 115 -349 250 -778 l246 -782 194 -2 195 -3
360 1032 c198 567 379 1085 401 1150 l42 118 -285 -2 -285 -3 -221 -642 c-122
-353 -224 -640 -226 -637 -3 3 -93 292 -201 642 l-195 637 -274 0 -274 0 -201
-648 -201 -648 -24 73 c-13 40 -113 332 -221 648 l-197 575 -283 3 -282 2 6
-22z"/>
<path d="M2783 12755 c-213 -46 -397 -232 -443 -446 -19 -86 -8 -259 20 -334
70 -182 205 -309 390 -367 l75 -23 3975 0 c3765 0 3978 1 4039 18 264 72 441
303 441 572 -1 258 -147 466 -398 564 l-67 26 -3985 2 c-3329 1 -3995 -1
-4047 -12z"/>
<path d="M2770 9964 c-206 -54 -372 -219 -424 -420 -20 -79 -21 -232 -1 -308
42 -160 160 -304 306 -374 46 -23 111 -46 144 -52 44 -8 2188 -10 7930 -8
l7870 3 64 24 c187 70 328 227 377 421 22 88 15 251 -16 337 -58 164 -194 301
-363 365 l-62 23 -7885 2 c-6850 1 -7892 0 -7940 -13z"/>
<path d="M2779 7179 c-111 -26 -226 -94 -302 -179 -56 -63 -121 -188 -137
-266 -18 -85 -8 -256 18 -328 63 -173 191 -301 363 -364 l74 -27 7855 -3
c5827 -2 7873 0 7924 9 213 35 403 215 461 434 18 69 20 201 4 277 -42 205
-219 389 -425 443 -52 13 -898 15 -7929 14 -4328 -1 -7886 -5 -7906 -10z"/>
<path d="M2813 4399 c-220 -37 -412 -215 -468 -434 -19 -76 -19 -224 0 -300
55 -214 235 -385 452 -430 64 -13 999 -15 7925 -13 7603 3 7855 4 7908 21 204
69 359 233 405 429 78 331 -131 660 -460 723 -67 13 -1064 15 -7893 14 -4317
-1 -7840 -5 -7869 -10z"/>
</g>
</svg>
