<!--<svg width="15" height="15" viewBox="0 0 15 15" fill="none" xmlns="http://www.w3.org/2000/svg">
<path fill-rule="evenodd" clip-rule="evenodd" d="M14.9531 6.66721C14.9293 6.45636 14.6835 6.29791 14.4709 6.29791C13.7836 6.29791 13.1737 5.89434 12.9179 5.2702C12.6565 4.63095 12.825 3.88544 13.3373 3.41556C13.4985 3.26816 13.5181 3.02142 13.3829 2.85003C13.0311 2.40332 12.6313 1.9998 12.1947 1.65009C12.0238 1.51291 11.7729 1.53199 11.6247 1.69614C11.1776 2.19123 10.3746 2.37525 9.75409 2.11633C9.10834 1.8447 8.70114 1.19038 8.74098 0.487999C8.75411 0.267379 8.59287 0.075557 8.3729 0.0499398C7.81267 -0.0148566 7.2475 -0.0168658 6.68559 0.0454749C6.46814 0.0694736 6.3069 0.256775 6.31422 0.474605C6.33866 1.17006 5.92654 1.81294 5.28721 2.07481C4.67411 2.32524 3.87672 2.1428 3.43057 1.6521C3.28311 1.49047 3.03636 1.47061 2.86457 1.60449C2.41506 1.95717 2.00624 2.36101 1.65121 2.80404C1.51274 2.97627 1.53311 3.22591 1.69597 3.37408C2.21798 3.84681 2.38654 4.5988 2.11535 5.24542C1.85645 5.86191 1.21627 6.25923 0.483402 6.25923C0.245586 6.2516 0.0761955 6.41121 0.0501869 6.62742C-0.0157832 7.19088 -0.0165646 7.765 0.0469498 8.33305C0.0705025 8.54479 0.323834 8.70186 0.538767 8.70186C1.19188 8.68516 1.81893 9.08952 2.08198 9.72962C2.34418 10.3689 2.17562 11.1139 1.6626 11.5842C1.50214 11.7316 1.48177 11.9779 1.61701 12.1493C1.9655 12.5932 2.36539 12.9971 2.80351 13.3497C2.97537 13.4882 3.22539 13.4687 3.37436 13.3045C3.8231 12.8082 4.62607 12.6245 5.24413 12.8839C5.8915 13.1547 6.2987 13.809 6.25886 14.5118C6.24585 14.7325 6.40787 14.9247 6.62694 14.9499C6.91353 14.9833 7.20186 15 7.49096 15C7.76539 15 8.03988 14.9849 8.3143 14.9544C8.5318 14.9304 8.69294 14.7431 8.68562 14.5249C8.66045 13.8298 9.0733 13.1869 9.71179 12.9255C10.329 12.6734 11.1231 12.8579 11.5693 13.3481C11.7176 13.5094 11.9626 13.5289 12.1353 13.3954C12.584 13.0436 12.992 12.6401 13.3487 12.1958C13.4871 12.024 13.4676 11.774 13.3039 11.6258C12.7819 11.1531 12.6125 10.401 12.8836 9.75483C13.1386 9.14655 13.755 8.73813 14.418 8.73813L14.5107 8.74053C14.7258 8.75801 14.9236 8.59235 14.9497 8.37285C15.0158 7.80888 15.0166 7.23525 14.9531 6.66721ZM7.5119 10.0175C6.13233 10.0175 5.01017 8.89541 5.01017 7.51587C5.01017 6.1364 6.13233 5.0142 7.5119 5.0142C8.89141 5.0142 10.0136 6.1364 10.0136 7.51587C10.0136 8.89541 8.89141 10.0175 7.5119 10.0175Z" fill="#E5001D"/>
</svg>-->
<svg width="15" height="15" viewBox="0 0 15 15" fill="none" xmlns="http://www.w3.org/2000/svg">

<path d="M16 384 c-13 -13 -16 -43 -16 -173 0 -140 2 -160 18 -174 27 -24 322 -25 346 -1 13 12 16 40 16 143 0 148 -6 161 -78 161 -40 0 -42 1 -42 30 l0 30 -114 0 c-91 0 -118 -3 -130 -16z m224 -24 c0 -19 -7 -20 -104 -20 -59 0 -108 4 -111 10 -14 23 11 30 111 30 97 0 104 -1 104 -20z m109 -54 c8 -9 11 -55 9 -137 l-3 -124 -165 0 -165 0 -3 138 -3 137 159 0 c124 0 162 -3 171 -14z"/> <path d="M240 256 l0 -46 51 0 50 0 -3 43 -3 42 -47 3 -48 3 0 -45z m80 -1 c0 -21 -5 -25 -30 -25 -25 0 -30 4 -30 25 0 21 5 25 30 25 25 0 30 -4 30 -25z"/> <path d="M40 277 c0 -7 9 -13 20 -14 11 -1 20 4 20 10 0 7 -9 13 -20 14 -11 1 -20 -4 -20 -10z"/> <path d="M90 277 c0 -9 4 -18 9 -21 5 -4 8 1 7 9 -3 21 -16 31 -16 12z"/> <path d="M133 276 c2 -6 12 -11 22 -11 10 0 20 5 22 11 2 5 -8 10 -22 10 -14 0 -24 -5 -22 -10z"/> <path d="M45 220 c-4 -6 23 -10 74 -10 47 0 81 4 81 10 0 13 -147 13 -155 0z"/> <path d="M45 170 c-4 -6 47 -10 144 -10 94 0 151 4 151 10 0 6 -55 10 -144 10 -86 0 -147 -4 -151 -10z"/> <path d="M45 120 c-4 -6 47 -10 144 -10 94 0 151 4 151 10 0 6 -55 10 -144 10 -86 0 -147 -4 -151 -10z"/> <path d="M45 70 c-4 -6 47 -10 144 -10 94 0 151 4 151 10 0 6 -55 10 -144 10 -86 0 -147 -4 -151 -10z"/> </g> 
</svg>
