<svg width="15" height="15" viewBox="0 0 15 15" fill="none" xmlns="http://www.w3.org/2000/svg">
<path d="M14.9374 10.2001C14.5427 9.85567 14.118 9.54185 13.672 9.26567C13.8834 8.64185 13.9907 8.00579 13.9907 7.37279C13.9907 4.34417 11.5768 1.53134 7.69048 0.0319303C7.58018 -0.0106434 7.44049 -0.0106434 7.32982 0.0319303C3.44425 1.53134 1.02964 4.34437 1.02964 7.37279C1.02964 7.98646 1.12995 8.60355 1.3283 9.20907C0.882804 9.48505 0.457983 9.79906 0.0629943 10.1439C0.00199834 10.1974 -0.0158263 10.2651 0.0144505 10.3279L2.19861 14.7939C2.23527 14.8689 2.33457 14.9244 2.45776 14.9401C2.58026 14.9554 2.70725 14.9272 2.78777 14.8677C3.38794 14.4191 4.21938 14.0656 5.16105 13.8539V14.0896C5.16105 14.2066 5.31408 14.3013 5.50238 14.3013H9.49678C9.6854 14.3013 9.83805 14.2066 9.83805 14.0896V13.9097C10.78 14.1214 11.6107 14.4757 12.2113 14.9235C12.2767 14.9725 12.374 15 12.4746 15C12.4963 15 12.5193 14.9985 12.5417 14.9957C12.665 14.98 12.7637 14.9239 12.8011 14.8499L14.9843 10.3835C15.0163 10.3219 14.9987 10.2535 14.9374 10.2001ZM9.77951 6.00082C9.32688 6.51735 8.45821 6.8383 7.51154 6.8383C6.61209 6.8383 5.79193 6.55354 5.31743 6.0766C5.06592 5.82343 4.93312 5.53377 4.93312 5.23889C4.93312 4.35695 6.0899 3.63984 7.51154 3.63984C8.93316 3.63984 10.0895 4.35719 10.0895 5.23889C10.0895 5.50527 9.98184 5.76855 9.77951 6.00082ZM10.5915 12.1487C10.5342 12.2273 10.4102 12.274 10.2795 12.274C10.2328 12.274 10.1859 12.2678 10.1395 12.255C9.9675 12.2066 9.89082 12.0822 9.96813 11.9755C12.1021 9.03289 11.7951 6.40555 11.7918 6.37948C11.7761 6.26309 11.9161 6.16112 12.1041 6.15152C12.2944 6.14356 12.4561 6.22906 12.4714 6.34541C12.4858 6.45675 12.7997 9.10236 10.5915 12.1487Z" fill="#E5001D"/>
</svg>
