<svg width="12" height="15" viewBox="0 0 12 15" fill="none" xmlns="http://www.w3.org/2000/svg">
<path d="M11.9499 10.2001C11.6342 9.85567 11.2944 9.54185 10.9376 9.26567C11.1067 8.64185 11.1926 8.00579 11.1926 7.37279C11.1926 4.34417 9.26142 1.53134 6.15239 0.0319303C6.06415 -0.0106434 5.95239 -0.0106434 5.86385 0.0319303C2.7554 1.53134 0.823709 4.34437 0.823709 7.37279C0.823709 7.98646 0.903959 8.60355 1.06264 9.20907C0.706243 9.48505 0.366386 9.79906 0.0503954 10.1439C0.00159867 10.1974 -0.012661 10.2651 0.0115604 10.3279L1.75889 14.7939C1.78822 14.8689 1.86766 14.9244 1.96621 14.9401C2.06421 14.9554 2.1658 14.9272 2.23022 14.8677C2.71035 14.4191 3.3755 14.0656 4.12884 13.8539V14.0896C4.12884 14.2066 4.25126 14.3013 4.4019 14.3013H7.59743C7.74832 14.3013 7.87044 14.2066 7.87044 14.0896V13.9097C8.62403 14.1214 9.28858 14.4757 9.76906 14.9235C9.82135 14.9725 9.89922 15 9.97972 15C9.99706 15 10.0155 14.9985 10.0334 14.9957C10.132 14.98 10.211 14.9239 10.2408 14.8499L11.9875 10.3835C12.0131 10.3219 11.9989 10.2535 11.9499 10.2001ZM7.82361 6.00082C7.4615 6.51735 6.76657 6.8383 6.00923 6.8383C5.28967 6.8383 4.63355 6.55354 4.25394 6.0766C4.05274 5.82343 3.9465 5.53377 3.9465 5.23889C3.9465 4.35695 4.87192 3.63984 6.00923 3.63984C7.14652 3.63984 8.07159 4.35719 8.07159 5.23889C8.07159 5.50527 7.98547 5.76855 7.82361 6.00082ZM8.47319 12.1487C8.42738 12.2273 8.32816 12.274 8.22359 12.274C8.18627 12.274 8.1487 12.2678 8.11159 12.255C7.974 12.2066 7.91266 12.0822 7.9745 11.9755C9.68168 9.03289 9.43608 6.40555 9.43345 6.37948C9.42091 6.26309 9.53291 6.16112 9.6833 6.15152C9.83555 6.14356 9.96485 6.22906 9.97714 6.34541C9.98862 6.45675 10.2398 9.10236 8.47319 12.1487Z" fill="#E5001D"/>
</svg>
