<svg width="238" height="457" viewBox="0 0 238 457" fill="none" xmlns="http://www.w3.org/2000/svg">
<path d="M236.32 260.191C230.076 251.405 223.357 243.4 216.301 236.355C219.645 220.442 221.343 204.217 221.343 188.07C221.343 110.814 183.153 39.0625 121.669 0.8145C119.924 -0.2715 117.714 -0.2715 115.963 0.8145C54.4906 39.0625 16.2896 110.819 16.2896 188.07C16.2896 203.724 17.8766 219.465 21.0146 234.911C13.9666 241.951 7.24562 249.961 0.996615 258.757C0.031615 260.122 -0.250383 261.848 0.228617 263.451L34.7836 377.372C35.3636 379.286 36.9346 380.701 38.8836 381.102C40.8216 381.493 42.8306 380.774 44.1046 379.255C53.5996 367.812 66.7536 358.795 81.6516 353.395V359.406C81.6516 362.391 84.0726 364.806 87.0516 364.806H150.246C153.23 364.806 155.645 362.391 155.645 359.406V354.818C170.548 360.218 183.69 369.257 193.192 380.679C194.226 381.929 195.766 382.63 197.358 382.63C197.701 382.63 198.065 382.593 198.419 382.52C200.37 382.119 201.931 380.69 202.522 378.802L237.063 264.868C237.569 263.297 237.29 261.552 236.32 260.191ZM154.719 153.073C147.558 166.249 133.815 174.436 118.838 174.436C104.608 174.436 91.6326 167.172 84.1256 155.006C80.1466 148.548 78.0456 141.159 78.0456 133.637C78.0456 111.14 96.3466 92.8475 118.838 92.8475C141.329 92.8475 159.623 111.146 159.623 133.637C159.623 140.432 157.92 147.148 154.719 153.073ZM167.565 309.898C166.659 311.902 164.697 313.094 162.629 313.094C161.891 313.094 161.148 312.936 160.414 312.609C157.693 311.375 156.48 308.2 157.703 305.479C191.464 230.417 186.607 163.397 186.555 162.732C186.307 159.763 188.522 157.162 191.496 156.917C194.507 156.714 197.064 158.895 197.307 161.863C197.534 164.703 202.501 232.189 167.565 309.898Z" fill="#ED1940"/>
<path d="M118.838 103.657C102.304 103.657 88.8456 117.115 88.8456 133.647C88.8456 139.168 90.3956 144.594 93.3226 149.346C98.8466 158.301 108.389 163.635 118.844 163.635C129.865 163.635 139.964 157.62 145.227 147.92C147.589 143.569 148.834 138.628 148.834 133.637C148.823 117.115 135.376 103.657 118.838 103.657Z" fill="#ED1940"/>
<path d="M149.509 371.852H87.2747C85.4657 371.852 83.7807 372.748 82.7757 374.257C81.7757 375.765 81.5947 377.674 82.2957 379.33L113.415 453.337C114.259 455.341 116.223 456.639 118.396 456.639C120.563 456.639 122.53 455.341 123.374 453.337L154.498 379.33C155.194 377.663 155.015 375.765 154.013 374.257C153.005 372.748 151.322 371.852 149.509 371.852ZM118.396 437.316L95.4007 382.652H141.393L118.396 437.316Z" fill="#ED1940"/>
</svg>
