<svg width="10" height="10" viewBox="0 0 10 10" fill="none" xmlns="http://www.w3.org/2000/svg">
<path fill-rule="evenodd" clip-rule="evenodd" d="M9.96846 4.44481C9.95265 4.30424 9.78875 4.19861 9.64703 4.19861C9.18882 4.19861 8.78222 3.92956 8.6117 3.51347C8.43749 3.0873 8.54982 2.59029 8.89131 2.27704C8.9988 2.17877 9.01186 2.01428 8.92171 1.90002C8.68719 1.60221 8.42064 1.3332 8.1296 1.10006C8.01564 1.00861 7.84843 1.02133 7.74961 1.13076C7.45158 1.46082 6.91624 1.5835 6.50257 1.41089C6.07208 1.2298 5.80062 0.793586 5.82718 0.325333C5.83593 0.178253 5.72844 0.0503713 5.5818 0.0332932C5.20832 -0.00990443 4.83155 -0.0112439 4.45695 0.0303166C4.31199 0.0463157 4.2045 0.171183 4.20938 0.316403C4.22567 0.780043 3.95093 1.20863 3.52472 1.38321C3.116 1.55016 2.58442 1.42853 2.28699 1.1014C2.18869 0.993649 2.02419 0.980404 1.90967 1.06966C1.61 1.30478 1.33746 1.57401 1.10078 1.86936C1.00847 1.98418 1.02205 2.15061 1.13062 2.24939C1.47862 2.56454 1.59099 3.06587 1.4102 3.49695C1.2376 3.90794 0.810828 4.17282 0.32226 4.17282C0.16372 4.16773 0.0507957 4.27414 0.0334571 4.41828C-0.0105219 4.79392 -0.0110428 5.17667 0.0312991 5.55537C0.0470005 5.69653 0.215884 5.80124 0.359169 5.80124C0.794569 5.79011 1.21259 6.05968 1.38795 6.48641C1.56275 6.91258 1.45038 7.4093 1.10837 7.7228C1.0014 7.82107 0.987823 7.9853 1.07798 8.09956C1.3103 8.39547 1.57689 8.66474 1.86896 8.89982C1.98353 8.99213 2.15021 8.97911 2.24952 8.86968C2.54867 8.5388 3.08397 8.41635 3.496 8.58929C3.92757 8.76982 4.19903 9.206 4.17247 9.67451C4.1638 9.82167 4.27181 9.94977 4.41785 9.96659C4.60891 9.98887 4.80112 10 4.99385 10C5.1768 10 5.35979 9.98995 5.54273 9.9696C5.68773 9.9536 5.79515 9.82874 5.79027 9.68325C5.77349 9.21988 6.04872 8.79128 6.47437 8.61701C6.88584 8.44894 7.41519 8.57195 7.71266 8.89874C7.81152 9.00627 7.97486 9.01925 8.09002 8.93029C8.38913 8.69574 8.66111 8.42673 8.8989 8.13056C8.99118 8.016 8.97815 7.84931 8.86902 7.75056C8.52103 7.43541 8.4081 6.93401 8.58889 6.50322C8.75885 6.0977 9.16977 5.82542 9.61176 5.82542L9.67359 5.82702C9.81695 5.83867 9.94885 5.72823 9.96623 5.5819C10.0103 5.20592 10.0108 4.8235 9.96846 4.44481ZM5.00781 6.67836C4.08812 6.67836 3.34003 5.93027 3.34003 5.01058C3.34003 4.09093 4.08812 3.3428 5.00781 3.3428C5.92746 3.3428 6.67555 4.09093 6.67555 5.01058C6.67555 5.93027 5.92746 6.67836 5.00781 6.67836Z" fill="white"/>
</svg>
