<svg width="512" height="512" viewBox="0 0 512 512" fill="none" xmlns="http://www.w3.org/2000/svg">
<path d="M241 165.03V228.97L288.96 197L241 165.03ZM241 165.03V228.97L288.96 197L241 165.03ZM241 165.03V228.97L288.96 197L241 165.03ZM241 165.03V228.97L288.96 197L241 165.03ZM91 92V302H421V92H91ZM324.32 209.48L234.32 269.48C224.37 276.12 211 268.96 211 257V137C211 125.05 224.36 117.88 234.32 124.52L324.32 184.52C333.21 190.44 333.23 203.54 324.32 209.48V209.48ZM241 228.97L288.96 197L241 165.03V228.97ZM91 92V302H421V92H91ZM324.32 209.48L234.32 269.48C224.37 276.12 211 268.96 211 257V137C211 125.05 224.36 117.88 234.32 124.52L324.32 184.52C333.21 190.44 333.23 203.54 324.32 209.48V209.48ZM241 228.97L288.96 197L241 165.03V228.97ZM166 392C157.73 392 151 398.73 151 407C151 415.27 157.73 422 166 422C174.27 422 181 415.27 181 407C181 398.73 174.27 392 166 392ZM497 0H15C6.72 0 0 6.72 0 15V497C0 505.28 6.72 512 15 512H497C505.28 512 512 505.28 512 497V15C512 6.72 505.28 0 497 0ZM436 422H208.42C202.24 439.46 185.55 452 166 452C146.45 452 129.76 439.46 123.58 422H76C67.72 422 61 415.28 61 407C61 398.72 67.72 392 76 392H123.58C129.76 374.54 146.45 362 166 362C185.55 362 202.24 374.54 208.42 392H436C444.28 392 451 398.72 451 407C451 415.28 444.28 422 436 422ZM451 317C451 325.28 444.28 332 436 332H76C67.72 332 61 325.28 61 317V77C61 68.72 67.72 62 76 62H436C444.28 62 451 68.72 451 77V317ZM91 302H421V92H91V302ZM211 137C211 125.05 224.36 117.88 234.32 124.52L324.32 184.52C333.21 190.44 333.23 203.54 324.32 209.48L234.32 269.48C224.37 276.12 211 268.96 211 257V137ZM241 165.03V228.97L288.96 197L241 165.03ZM166 392C157.73 392 151 398.73 151 407C151 415.27 157.73 422 166 422C174.27 422 181 415.27 181 407C181 398.73 174.27 392 166 392ZM241 165.03V228.97L288.96 197L241 165.03ZM241 165.03V228.97L288.96 197L241 165.03ZM91 92V302H421V92H91ZM324.32 209.48L234.32 269.48C224.37 276.12 211 268.96 211 257V137C211 125.05 224.36 117.88 234.32 124.52L324.32 184.52C333.21 190.44 333.23 203.54 324.32 209.48V209.48ZM241 228.97L288.96 197L241 165.03V228.97ZM241 165.03V228.97L288.96 197L241 165.03ZM241 165.03V228.97L288.96 197L241 165.03ZM91 92V302H421V92H91ZM324.32 209.48L234.32 269.48C224.37 276.12 211 268.96 211 257V137C211 125.05 224.36 117.88 234.32 124.52L324.32 184.52C333.21 190.44 333.23 203.54 324.32 209.48V209.48ZM241 228.97L288.96 197L241 165.03V228.97ZM241 165.03V228.97L288.96 197L241 165.03ZM241 165.03V228.97L288.96 197L241 165.03Z" fill="#ED1940"/>
</svg>
