<svg width="15" height="15" viewBox="0 0 15 15" fill="none" xmlns="http://www.w3.org/2000/svg">
<path d="M7.06055 4.83486V6.70811L8.46562 5.77148L7.06055 4.83486ZM7.06055 4.83486V6.70811L8.46562 5.77148L7.06055 4.83486ZM7.06055 4.83486V6.70811L8.46562 5.77148L7.06055 4.83486ZM7.06055 4.83486V6.70811L8.46562 5.77148L7.06055 4.83486ZM2.66602 2.69531V8.84766H12.334V2.69531H2.66602ZM9.50156 6.13711L6.86484 7.89492C6.57334 8.08945 6.18164 7.87969 6.18164 7.5293V4.01367C6.18164 3.66357 6.57305 3.45352 6.86484 3.64805L9.50156 5.40586C9.76201 5.5793 9.7626 5.96309 9.50156 6.13711ZM7.06055 6.70811L8.46562 5.77148L7.06055 4.83486V6.70811ZM2.66602 2.69531V8.84766H12.334V2.69531H2.66602ZM9.50156 6.13711L6.86484 7.89492C6.57334 8.08945 6.18164 7.87969 6.18164 7.5293V4.01367C6.18164 3.66357 6.57305 3.45352 6.86484 3.64805L9.50156 5.40586C9.76201 5.5793 9.7626 5.96309 9.50156 6.13711ZM7.06055 6.70811L8.46562 5.77148L7.06055 4.83486V6.70811ZM4.86328 11.4844C4.621 11.4844 4.42383 11.6815 4.42383 11.9238C4.42383 12.1661 4.621 12.3633 4.86328 12.3633C5.10557 12.3633 5.30273 12.1661 5.30273 11.9238C5.30273 11.6815 5.10557 11.4844 4.86328 11.4844ZM14.5605 0H0.439453C0.196875 0 0 0.196875 0 0.439453V14.5605C0 14.8031 0.196875 15 0.439453 15H14.5605C14.8031 15 15 14.8031 15 14.5605V0.439453C15 0.196875 14.8031 0 14.5605 0ZM12.7734 12.3633H6.10605C5.925 12.8748 5.43604 13.2422 4.86328 13.2422C4.29053 13.2422 3.80156 12.8748 3.62051 12.3633H2.22656C1.98398 12.3633 1.78711 12.1664 1.78711 11.9238C1.78711 11.6813 1.98398 11.4844 2.22656 11.4844H3.62051C3.80156 10.9729 4.29053 10.6055 4.86328 10.6055C5.43604 10.6055 5.925 10.9729 6.10605 11.4844H12.7734C13.016 11.4844 13.2129 11.6813 13.2129 11.9238C13.2129 12.1664 13.016 12.3633 12.7734 12.3633ZM13.2129 9.28711C13.2129 9.52969 13.016 9.72656 12.7734 9.72656H2.22656C1.98398 9.72656 1.78711 9.52969 1.78711 9.28711V2.25586C1.78711 2.01328 1.98398 1.81641 2.22656 1.81641H12.7734C13.016 1.81641 13.2129 2.01328 13.2129 2.25586V9.28711ZM2.66602 8.84766H12.334V2.69531H2.66602V8.84766ZM6.18164 4.01367C6.18164 3.66357 6.57305 3.45352 6.86484 3.64805L9.50156 5.40586C9.76201 5.5793 9.7626 5.96309 9.50156 6.13711L6.86484 7.89492C6.57334 8.08945 6.18164 7.87969 6.18164 7.5293V4.01367ZM7.06055 4.83486V6.70811L8.46562 5.77148L7.06055 4.83486ZM4.86328 11.4844C4.621 11.4844 4.42383 11.6815 4.42383 11.9238C4.42383 12.1661 4.621 12.3633 4.86328 12.3633C5.10557 12.3633 5.30273 12.1661 5.30273 11.9238C5.30273 11.6815 5.10557 11.4844 4.86328 11.4844ZM7.06055 4.83486V6.70811L8.46562 5.77148L7.06055 4.83486ZM7.06055 4.83486V6.70811L8.46562 5.77148L7.06055 4.83486ZM2.66602 2.69531V8.84766H12.334V2.69531H2.66602ZM9.50156 6.13711L6.86484 7.89492C6.57334 8.08945 6.18164 7.87969 6.18164 7.5293V4.01367C6.18164 3.66357 6.57305 3.45352 6.86484 3.64805L9.50156 5.40586C9.76201 5.5793 9.7626 5.96309 9.50156 6.13711ZM7.06055 6.70811L8.46562 5.77148L7.06055 4.83486V6.70811ZM7.06055 4.83486V6.70811L8.46562 5.77148L7.06055 4.83486ZM7.06055 4.83486V6.70811L8.46562 5.77148L7.06055 4.83486ZM2.66602 2.69531V8.84766H12.334V2.69531H2.66602ZM9.50156 6.13711L6.86484 7.89492C6.57334 8.08945 6.18164 7.87969 6.18164 7.5293V4.01367C6.18164 3.66357 6.57305 3.45352 6.86484 3.64805L9.50156 5.40586C9.76201 5.5793 9.7626 5.96309 9.50156 6.13711ZM7.06055 6.70811L8.46562 5.77148L7.06055 4.83486V6.70811ZM7.06055 4.83486V6.70811L8.46562 5.77148L7.06055 4.83486ZM7.06055 4.83486V6.70811L8.46562 5.77148L7.06055 4.83486Z" fill="#E5001D"/>
</svg>
